<svg width="24" height="24" viewBox="0 0 24 24" fill="none" xmlns="http://www.w3.org/2000/svg">
<path fill-rule="evenodd" clip-rule="evenodd" d="M14.4289 4.92893C16.3043 3.05357 18.8478 2 21.5 2L21.5 4.1254C19.4115 4.1254 17.4086 4.95504 15.9318 6.43182C15.1329 7.23078 14.5233 8.18375 14.1321 9.22095C15.2278 9.66775 16 10.7437 16 12C16 13.2563 15.2278 14.3323 14.1321 14.7791C14.5233 15.8163 15.1329 16.7692 15.9318 17.5682C17.4086 19.045 19.4115 19.8746 21.5 19.8746L21.5 22C18.8478 22 16.3043 20.9464 14.4289 19.0711C13.2274 17.8695 12.3632 16.3938 11.8973 14.7909C10.7861 14.3514 10 13.2675 10 12C10 10.7325 10.7861 9.64856 11.8973 9.20914C12.3632 7.60624 13.2274 6.13045 14.4289 4.92893ZM6.25 13L6.25 15.4641L10 12L6.25 8.5359L6.25 11L2.5 11L2.5 13L6.25 13ZM13 12.9979C12.4489 12.9979 12.0021 12.5511 12.0021 12C12.0021 11.4489 12.4489 11.0021 13 11.0021C13.5511 11.0021 13.9979 11.4489 13.9979 12C13.9979 12.5511 13.5511 12.9979 13 12.9979Z" fill="white"/>
<path fill-rule="evenodd" clip-rule="evenodd" d="M14.4289 4.92893C16.3043 3.05357 18.8478 2 21.5 2L21.5 4.1254C19.4115 4.1254 17.4086 4.95504 15.9318 6.43182C15.1329 7.23078 14.5233 8.18375 14.1321 9.22095C15.2278 9.66775 16 10.7437 16 12C16 13.2563 15.2278 14.3323 14.1321 14.7791C14.5233 15.8163 15.1329 16.7692 15.9318 17.5682C17.4086 19.045 19.4115 19.8746 21.5 19.8746L21.5 22C18.8478 22 16.3043 20.9464 14.4289 19.0711C13.2274 17.8695 12.3632 16.3938 11.8973 14.7909C10.7861 14.3514 10 13.2675 10 12C10 10.7325 10.7861 9.64856 11.8973 9.20914C12.3632 7.60624 13.2274 6.13045 14.4289 4.92893ZM6.25 13L6.25 15.4641L10 12L6.25 8.5359L6.25 11L2.5 11L2.5 13L6.25 13ZM13 12.9979C12.4489 12.9979 12.0021 12.5511 12.0021 12C12.0021 11.4489 12.4489 11.0021 13 11.0021C13.5511 11.0021 13.9979 11.4489 13.9979 12C13.9979 12.5511 13.5511 12.9979 13 12.9979Z" fill="url(#paint0_linear_913_1458)"/>
<defs>
<linearGradient id="paint0_linear_913_1458" x1="12" y1="22" x2="12" y2="2" gradientUnits="userSpaceOnUse">
<stop stop-color="white"/>
<stop offset="1" stop-color="white" stop-opacity="0"/>
</linearGradient>
</defs>
</svg>
