<svg width="24" height="24" viewBox="0 0 24 24" fill="none" xmlns="http://www.w3.org/2000/svg">
<path fill-rule="evenodd" clip-rule="evenodd" d="M3 22C5.65216 22 8.1957 20.9464 10.0711 19.0711C11.2726 17.8696 12.1368 16.3938 12.6027 14.7909C13.4065 14.473 14.0402 13.8179 14.3293 13H17.25V15.4641L21 12L17.25 8.5359V11H14.3293C14.0402 10.1821 13.4065 9.527 12.6027 9.20914C12.1368 7.60624 11.2726 6.13045 10.0711 4.92893C8.19571 3.05357 5.65217 2 3 2L3 4.1254C5.08847 4.1254 7.09141 4.95504 8.56818 6.43182C9.36714 7.23078 9.97669 8.18375 10.3679 9.22095C9.27223 9.66775 8.5 10.7437 8.5 12C8.5 13.2563 9.27223 14.3323 10.3679 14.7791C9.97669 15.8163 9.36714 16.7692 8.56818 17.5682C7.09141 19.045 5.08847 19.8746 3 19.8746V22ZM11.5 12.9979C10.9489 12.9979 10.5021 12.5511 10.5021 12C10.5021 11.4489 10.9489 11.0021 11.5 11.0021C12.0511 11.0021 12.4979 11.4489 12.4979 12C12.4979 12.5511 12.0511 12.9979 11.5 12.9979Z" fill="white"/>
<path fill-rule="evenodd" clip-rule="evenodd" d="M3 22C5.65216 22 8.1957 20.9464 10.0711 19.0711C11.2726 17.8696 12.1368 16.3938 12.6027 14.7909C13.4065 14.473 14.0402 13.8179 14.3293 13H17.25V15.4641L21 12L17.25 8.5359V11H14.3293C14.0402 10.1821 13.4065 9.527 12.6027 9.20914C12.1368 7.60624 11.2726 6.13045 10.0711 4.92893C8.19571 3.05357 5.65217 2 3 2L3 4.1254C5.08847 4.1254 7.09141 4.95504 8.56818 6.43182C9.36714 7.23078 9.97669 8.18375 10.3679 9.22095C9.27223 9.66775 8.5 10.7437 8.5 12C8.5 13.2563 9.27223 14.3323 10.3679 14.7791C9.97669 15.8163 9.36714 16.7692 8.56818 17.5682C7.09141 19.045 5.08847 19.8746 3 19.8746V22ZM11.5 12.9979C10.9489 12.9979 10.5021 12.5511 10.5021 12C10.5021 11.4489 10.9489 11.0021 11.5 11.0021C12.0511 11.0021 12.4979 11.4489 12.4979 12C12.4979 12.5511 12.0511 12.9979 11.5 12.9979Z" fill="url(#paint0_linear_913_1667)"/>
<defs>
<linearGradient id="paint0_linear_913_1667" x1="12" y1="2" x2="12" y2="22" gradientUnits="userSpaceOnUse">
<stop stop-color="white"/>
<stop offset="1" stop-color="white" stop-opacity="0"/>
</linearGradient>
</defs>
</svg>
