<svg width="24" height="24" viewBox="0 0 24 24" fill="none" xmlns="http://www.w3.org/2000/svg">
<path d="M21.0585 18.3917C21.0756 18.2667 21.0842 18.1375 21.0842 18C21.0842 17.8667 21.0756 17.7333 21.0542 17.6083L21.9238 16.95C22.0009 16.8917 22.0223 16.7792 21.9752 16.6958L21.1527 15.3125C21.1013 15.2208 20.9942 15.1917 20.9 15.2208L19.8762 15.6208C19.662 15.4625 19.435 15.3292 19.1823 15.2292L19.0281 14.1708C19.0109 14.0708 18.9253 14 18.8224 14H17.1776C17.0747 14 16.9934 14.0708 16.9762 14.1708L16.822 15.2292C16.5693 15.3292 16.338 15.4667 16.1281 15.6208L15.1043 15.2208C15.0101 15.1875 14.903 15.2208 14.8516 15.3125L14.0334 16.6958C13.982 16.7833 13.9991 16.8917 14.0848 16.95L14.9544 17.6083C14.933 17.7333 14.9158 17.8708 14.9158 18C14.9158 18.1292 14.9244 18.2667 14.9458 18.3917L14.0762 19.05C13.9991 19.1083 13.9777 19.2208 14.0248 19.3042L14.8473 20.6875C14.8987 20.7792 15.0058 20.8083 15.1 20.7792L16.1238 20.3792C16.338 20.5375 16.565 20.6708 16.8177 20.7708L16.9719 21.8292C16.9934 21.9292 17.0747 22 17.1776 22H18.8224C18.9253 22 19.0109 21.9292 19.0238 21.8292L19.178 20.7708C19.4307 20.6708 19.662 20.5375 19.8719 20.3792L20.8957 20.7792C20.9899 20.8125 21.097 20.7792 21.1484 20.6875L21.9709 19.3042C22.0223 19.2125 22.0009 19.1083 21.9195 19.05L21.0585 18.3917ZM18 19.5C17.1519 19.5 16.4579 18.825 16.4579 18C16.4579 17.175 17.1519 16.5 18 16.5C18.8481 16.5 19.5421 17.175 19.5421 18C19.5421 18.825 18.8481 19.5 18 19.5Z" fill="white"/>
<path d="M21.0585 18.3917C21.0756 18.2667 21.0842 18.1375 21.0842 18C21.0842 17.8667 21.0756 17.7333 21.0542 17.6083L21.9238 16.95C22.0009 16.8917 22.0223 16.7792 21.9752 16.6958L21.1527 15.3125C21.1013 15.2208 20.9942 15.1917 20.9 15.2208L19.8762 15.6208C19.662 15.4625 19.435 15.3292 19.1823 15.2292L19.0281 14.1708C19.0109 14.0708 18.9253 14 18.8224 14H17.1776C17.0747 14 16.9934 14.0708 16.9762 14.1708L16.822 15.2292C16.5693 15.3292 16.338 15.4667 16.1281 15.6208L15.1043 15.2208C15.0101 15.1875 14.903 15.2208 14.8516 15.3125L14.0334 16.6958C13.982 16.7833 13.9991 16.8917 14.0848 16.95L14.9544 17.6083C14.933 17.7333 14.9158 17.8708 14.9158 18C14.9158 18.1292 14.9244 18.2667 14.9458 18.3917L14.0762 19.05C13.9991 19.1083 13.9777 19.2208 14.0248 19.3042L14.8473 20.6875C14.8987 20.7792 15.0058 20.8083 15.1 20.7792L16.1238 20.3792C16.338 20.5375 16.565 20.6708 16.8177 20.7708L16.9719 21.8292C16.9934 21.9292 17.0747 22 17.1776 22H18.8224C18.9253 22 19.0109 21.9292 19.0238 21.8292L19.178 20.7708C19.4307 20.6708 19.662 20.5375 19.8719 20.3792L20.8957 20.7792C20.9899 20.8125 21.097 20.7792 21.1484 20.6875L21.9709 19.3042C22.0223 19.2125 22.0009 19.1083 21.9195 19.05L21.0585 18.3917ZM18 19.5C17.1519 19.5 16.4579 18.825 16.4579 18C16.4579 17.175 17.1519 16.5 18 16.5C18.8481 16.5 19.5421 17.175 19.5421 18C19.5421 18.825 18.8481 19.5 18 19.5Z" fill="url(#paint0_linear_846_9293)"/>
<path d="M14.3809 11.5238L10.0951 14.823L10.0951 8.22467L14.3809 11.5238Z" fill="white"/>
<path d="M14.3809 11.5238L10.0951 14.823L10.0951 8.22467L14.3809 11.5238Z" fill="url(#paint1_linear_846_9293)"/>
<path d="M11.5238 21.0476C9.64018 21.0476 7.79885 20.4891 6.23266 19.4426C4.66648 18.3961 3.44579 16.9087 2.72496 15.1684C2.00412 13.4282 1.81552 11.5132 2.183 9.66581C2.55048 7.81837 3.45753 6.12139 4.78946 4.78946C6.12139 3.45753 7.81837 2.55048 9.66581 2.183C11.5132 1.81552 13.4282 2.00412 15.1684 2.72496C16.9087 3.44579 18.3961 4.66648 19.4426 6.23267C20.4891 7.79885 21.0476 9.64018 21.0476 11.5238L19.0474 11.5238C19.0474 10.0358 18.6062 8.58116 17.7795 7.34391C16.9528 6.10666 15.7777 5.14234 14.403 4.57289C13.0282 4.00345 11.5155 3.85445 10.056 4.14475C8.59659 4.43506 7.25601 5.15161 6.20381 6.20381C5.15161 7.256 4.43506 8.59658 4.14476 10.056C3.85445 11.5155 4.00345 13.0282 4.57289 14.403C5.14234 15.7777 6.10666 16.9528 7.34391 17.7795C8.58116 18.6062 10.0358 19.0474 11.5238 19.0474L11.5238 21.0476Z" fill="white"/>
<path d="M11.5238 21.0476C9.64018 21.0476 7.79885 20.4891 6.23266 19.4426C4.66648 18.3961 3.44579 16.9087 2.72496 15.1684C2.00412 13.4282 1.81552 11.5132 2.183 9.66581C2.55048 7.81837 3.45753 6.12139 4.78946 4.78946C6.12139 3.45753 7.81837 2.55048 9.66581 2.183C11.5132 1.81552 13.4282 2.00412 15.1684 2.72496C16.9087 3.44579 18.3961 4.66648 19.4426 6.23267C20.4891 7.79885 21.0476 9.64018 21.0476 11.5238L19.0474 11.5238C19.0474 10.0358 18.6062 8.58116 17.7795 7.34391C16.9528 6.10666 15.7777 5.14234 14.403 4.57289C13.0282 4.00345 11.5155 3.85445 10.056 4.14475C8.59659 4.43506 7.25601 5.15161 6.20381 6.20381C5.15161 7.256 4.43506 8.59658 4.14476 10.056C3.85445 11.5155 4.00345 13.0282 4.57289 14.403C5.14234 15.7777 6.10666 16.9528 7.34391 17.7795C8.58116 18.6062 10.0358 19.0474 11.5238 19.0474L11.5238 21.0476Z" fill="url(#paint2_linear_846_9293)"/>
<defs>
<linearGradient id="paint0_linear_846_9293" x1="18" y1="14" x2="18" y2="22" gradientUnits="userSpaceOnUse">
<stop stop-color="white"/>
<stop offset="1" stop-color="white" stop-opacity="0"/>
</linearGradient>
<linearGradient id="paint1_linear_846_9293" x1="14.3809" y1="11.5238" x2="8.66657" y2="11.5238" gradientUnits="userSpaceOnUse">
<stop stop-color="white"/>
<stop offset="1" stop-color="white" stop-opacity="0"/>
</linearGradient>
<linearGradient id="paint2_linear_846_9293" x1="11.5238" y1="2" x2="11.5238" y2="21.0476" gradientUnits="userSpaceOnUse">
<stop stop-color="white"/>
<stop offset="1" stop-color="white" stop-opacity="0"/>
</linearGradient>
</defs>
</svg>
