<svg width="24" height="24" viewBox="0 0 24 24" fill="none" xmlns="http://www.w3.org/2000/svg">
<path fill-rule="evenodd" clip-rule="evenodd" d="M5.63495 10.2026C6.63733 10.2026 7.45251 11.0178 7.45251 12.0201C7.45251 13.0225 6.63733 13.8377 5.63495 13.8377C4.63256 13.8377 3.81738 13.0225 3.81738 12.0201C3.81738 11.0178 4.63256 10.2026 5.63495 10.2026ZM18.3335 7.97705L17.0476 9.26207L18.8951 11.1096L9.13757 11.0978C8.99307 10.5516 8.7268 10.06 8.36692 9.64558L12.9299 5.09894L12.929 7.45013H14.7466V2.90878C14.7466 2.40623 14.3403 2 13.8378 2H9.28197V3.81756H11.6403L6.83653 8.60502C6.45848 8.47143 6.05862 8.3851 5.63512 8.3851C3.62763 8.3851 2 10.0127 2 12.0202C2 14.0277 3.62763 15.6553 5.63512 15.6553C6.06952 15.6553 6.4812 15.5663 6.86652 15.4263L11.6476 20.2238L9.28197 20.2229V22.0404H13.8378C14.3403 22.0404 14.7466 21.6342 14.7466 21.1317V16.5446H12.929V18.9342L8.38419 14.374C8.74134 13.9577 9.00579 13.4643 9.14575 12.9154L18.9006 12.9272L17.0476 14.7784L18.3335 16.0643L21.7342 12.6636C22.0886 12.3083 22.0886 11.733 21.7342 11.3777L18.3335 7.97705Z" fill="white"/>
</svg>
