<svg width="15" height="24" viewBox="0 0 15 24" fill="none" xmlns="http://www.w3.org/2000/svg">
<path fill-rule="evenodd" clip-rule="evenodd" d="M3.36612 0.0763791C2.26173 0.316078 1.31691 1.23705 1.01782 2.3655C0.911574 2.76628 0.913278 3.48077 1.02153 3.9015C1.27887 4.90203 2.19763 5.85757 3.14471 6.1096L3.3577 6.16627V7.06013V7.95399L3.02674 8.03712C1.67137 8.37747 0.516365 9.52692 0.141353 10.9086C-0.0103954 11.4675 -0.0114479 12.403 0.139048 12.9344C0.355145 13.6975 0.677837 14.2556 1.21141 14.789C1.72013 15.2976 2.57259 15.77 3.14782 15.8619L3.3577 15.8955V16.8605V17.8256L3.19483 17.8562C2.93753 17.9046 2.42671 18.1653 2.10637 18.4117C1.71678 18.7115 1.33755 19.225 1.15092 19.7055C0.686406 20.9016 0.946755 22.1413 1.85324 23.0494C2.4666 23.6639 3.19633 23.9668 4.05931 23.9649C5.76819 23.9612 7.16415 22.5579 7.16486 20.843C7.16536 19.5499 6.30307 18.3385 5.07761 17.9105L4.73587 17.7912L4.72229 16.8472L4.70871 15.9032L4.99792 15.8419C5.64842 15.7042 6.24689 15.3763 6.81149 14.8483L7.19427 14.4903L7.9239 15.0097L8.65353 15.5291L8.58758 15.8437C8.50033 16.26 8.50308 16.5576 8.5984 17.0246C8.84798 18.2474 9.8142 19.2135 11.0358 19.4618C11.5223 19.5607 11.782 19.5606 12.2678 19.4615C13.9371 19.1209 15.0431 17.4774 14.712 15.8299C14.4835 14.6932 13.7328 13.8367 12.6154 13.4377C12.3024 13.3259 12.1714 13.3083 11.6518 13.3083C11.1322 13.3083 11.0011 13.3259 10.6882 13.4377C10.2421 13.597 9.96119 13.7591 9.5766 14.0791L9.28007 14.3258L8.58658 13.8359C7.80844 13.2861 7.84732 13.3575 7.98655 12.7354C8.09134 12.2669 8.09114 11.6252 7.98604 11.1332C7.94069 10.9208 7.90125 10.7037 7.89834 10.6508C7.89323 10.5565 8.09665 10.3939 8.98128 9.78566L9.31771 9.55438L9.53255 9.76562C10.2699 10.4907 11.5241 10.7896 12.5288 10.4798C13.2467 10.2583 13.919 9.74342 14.3142 9.11236C14.7019 8.49322 14.8572 7.63377 14.712 6.91127C14.2147 4.43742 11.2215 3.51539 9.45091 5.29064C9.28323 5.45879 9.07114 5.72179 8.97958 5.87516C8.59525 6.519 8.44034 7.35965 8.58216 8.03215L8.65423 8.37367L7.92415 8.89069L7.19402 9.40772L7.00333 9.19107C6.57289 8.7022 5.7477 8.21103 5.05861 8.03356L4.71081 7.94397V7.06304V6.18215L5.05505 6.07127C6.50569 5.6042 7.42756 3.98357 7.09434 2.4862C6.71582 0.785256 5.05285 -0.289633 3.36612 0.0763791ZM4.68074 1.75613C4.97191 1.89296 5.2732 2.19334 5.4218 2.49502C5.59449 2.84555 5.58597 3.43703 5.40325 3.78245C4.91428 4.70688 3.73612 4.92112 3.01657 4.21645C2.62126 3.82935 2.47226 3.37445 2.56618 2.84139C2.73251 1.89732 3.80738 1.34567 4.68074 1.75613ZM12.2588 6.10935C13.2032 6.52572 13.4538 7.73669 12.7555 8.50945C12.4727 8.82235 12.0856 8.99085 11.6536 8.98905C10.7979 8.98544 10.1594 8.34761 10.1531 7.49018C10.145 6.39529 11.2556 5.66698 12.2588 6.10935ZM4.58753 9.89779C5.39153 10.1071 5.97667 10.7625 6.12346 11.6183C6.27686 12.5128 5.81189 13.4003 4.97256 13.8151C4.60056 13.9989 4.57645 14.0037 4.03581 14.0037C3.51155 14.0037 3.46269 13.9948 3.15158 13.8417C2.73101 13.6347 2.34868 13.2524 2.14165 12.832C1.98735 12.5186 1.97953 12.4749 1.97953 11.9255C1.97953 11.3949 1.99086 11.3252 2.1196 11.063C2.58467 10.1162 3.59469 9.6393 4.58753 9.89779ZM12.2588 15.0279C13.2032 15.4443 13.4538 16.6553 12.7555 17.428C12.4727 17.7409 12.0856 17.9094 11.6536 17.9076C10.7979 17.904 10.1594 17.2662 10.1531 16.4088C10.145 15.3139 11.2556 14.5856 12.2588 15.0279ZM4.58217 19.4431C4.91849 19.5689 5.27772 19.9036 5.42741 20.2307C5.58207 20.5686 5.57725 21.1231 5.41658 21.4833C5.2715 21.8085 4.89769 22.1569 4.5763 22.2664C4.44751 22.3103 4.19192 22.3461 4.0083 22.3461C3.1839 22.3461 2.54704 21.6934 2.54704 20.8484C2.54704 20.3856 2.68991 20.0619 3.0325 19.7489C3.46951 19.3496 4.03426 19.2382 4.58217 19.4431Z" fill="white"/>
</svg>
