<svg width="24" height="24" viewBox="0 0 24 24" fill="none" xmlns="http://www.w3.org/2000/svg">
<path d="M13.8182 12L12 13.8182L10.1818 12L12 10.1818L13.8182 12ZM12 6.54545L13.9273 8.47273L16.2 6.2L12 2L7.8 6.2L10.0727 8.47273L12 6.54545ZM6.54545 12L8.47273 10.0727L6.2 7.8L2 12L6.2 16.2L8.47273 13.9273L6.54545 12ZM17.4545 12L15.5273 13.9273L17.8 16.2L22 12L17.8 7.8L15.5273 10.0727L17.4545 12ZM12 17.4545L10.0727 15.5273L7.8 17.8L12 22L16.2 17.8L13.9273 15.5273L12 17.4545Z" fill="white"/>
<path d="M13.8182 12L12 13.8182L10.1818 12L12 10.1818L13.8182 12ZM12 6.54545L13.9273 8.47273L16.2 6.2L12 2L7.8 6.2L10.0727 8.47273L12 6.54545ZM6.54545 12L8.47273 10.0727L6.2 7.8L2 12L6.2 16.2L8.47273 13.9273L6.54545 12ZM17.4545 12L15.5273 13.9273L17.8 16.2L22 12L17.8 7.8L15.5273 10.0727L17.4545 12ZM12 17.4545L10.0727 15.5273L7.8 17.8L12 22L16.2 17.8L13.9273 15.5273L12 17.4545Z" fill="url(#paint0_linear_935_43240)"/>
<defs>
<linearGradient id="paint0_linear_935_43240" x1="12" y1="2" x2="12" y2="22" gradientUnits="userSpaceOnUse">
<stop stop-color="white"/>
<stop offset="1" stop-color="white" stop-opacity="0"/>
</linearGradient>
</defs>
</svg>
