<svg width="24" height="24" viewBox="0 0 24 24" fill="none" xmlns="http://www.w3.org/2000/svg">
<path d="M6 3L6.0095 8.7L9.8 12.5L6.0095 16.3095L6 22H17.4V16.3L13.6 12.5L17.4 8.7095V3H6ZM15.5 16.775V20.1H7.9V16.775L11.7 12.975L15.5 16.775Z" fill="white"/>
<path d="M6 3L6.0095 8.7L9.8 12.5L6.0095 16.3095L6 22H17.4V16.3L13.6 12.5L17.4 8.7095V3H6ZM15.5 16.775V20.1H7.9V16.775L11.7 12.975L15.5 16.775Z" fill="url(#paint0_linear_913_1578)"/>
<defs>
<linearGradient id="paint0_linear_913_1578" x1="11.7" y1="3" x2="11.7" y2="22" gradientUnits="userSpaceOnUse">
<stop stop-color="white"/>
<stop offset="1" stop-color="white" stop-opacity="0"/>
</linearGradient>
</defs>
</svg>
